<svg xmlns="http://www.w3.org/2000/svg" xmlns:xlink="http://www.w3.org/1999/xlink" width="500" zoomAndPan="magnify" viewBox="0 0 375 374.999991" height="500" preserveAspectRatio="xMidYMid meet" version="1.0"><defs><g/><clipPath id="b3426d7f6b"><path d="M 18.359375 3.773438 L 356.609375 3.773438 L 356.609375 268 L 18.359375 268 Z M 18.359375 3.773438 " clip-rule="nonzero"/></clipPath><clipPath id="b379099a07"><path d="M 18.359375 125 L 264 125 L 264 375 L 18.359375 375 Z M 18.359375 125 " clip-rule="nonzero"/></clipPath><clipPath id="f5130dd3a2"><rect x="0" width="11" y="0" height="26"/></clipPath></defs><rect x="-37.5" width="450" fill="#ffffff" y="-37.499999" height="449.999989" fill-opacity="1"/><rect x="-37.5" width="450" fill="#f7f3ff" y="-37.499999" height="449.999989" fill-opacity="1"/><g clip-path="url(#b3426d7f6b)"><path fill="#9774f7" d="M 50.042969 12.5 C 40.097656 18.207031 32.234375 26.144531 26.761719 35.550781 C 21.289062 45.03125 18.359375 55.824219 18.359375 67.3125 L 18.359375 177.089844 C 18.359375 188.5 21.289062 199.292969 26.761719 208.773438 C 32.234375 218.179688 40.097656 226.117188 50.042969 231.898438 L 107.785156 265.28125 C 116.417969 270.292969 127.363281 267.363281 132.375 258.726562 C 137.386719 250.09375 134.457031 239.148438 125.824219 234.136719 L 68.082031 200.753906 L 68.003906 200.753906 C 63.609375 198.210938 60.140625 194.820312 57.90625 190.886719 C 55.671875 186.957031 54.4375 182.253906 54.4375 177.089844 L 54.4375 67.3125 C 54.4375 62.148438 55.671875 57.445312 57.90625 53.589844 L 57.90625 53.511719 C 60.140625 49.582031 63.609375 46.1875 68.082031 43.644531 C 72.476562 41.101562 77.101562 39.867188 81.726562 39.867188 C 86.351562 39.867188 91.054688 41.101562 95.371094 43.644531 L 201.0625 104.699219 L 201.140625 104.699219 L 306.910156 165.679688 C 311.304688 168.222656 314.695312 171.617188 317.007812 175.625 C 319.242188 179.554688 320.476562 184.179688 320.476562 189.421875 C 320.476562 194.28125 319.398438 198.75 317.46875 202.453125 C 317.316406 202.683594 317.164062 202.914062 317.085938 203.144531 C 314.773438 207.152344 311.304688 210.625 306.984375 213.089844 C 298.351562 218.023438 295.421875 229.046875 300.355469 237.605469 C 305.289062 246.238281 316.3125 249.167969 324.871094 244.234375 C 334.894531 238.453125 342.832031 230.511719 348.230469 221.183594 C 348.460938 220.800781 348.691406 220.414062 348.847656 219.953125 C 353.933594 210.777344 356.632812 200.371094 356.632812 189.347656 C 356.632812 177.9375 353.703125 167.144531 348.230469 157.664062 L 348.230469 157.585938 C 342.832031 148.257812 334.894531 140.316406 324.871094 134.535156 L 219.257812 73.554688 L 113.410156 12.5 C 103.390625 6.71875 92.597656 3.789062 81.726562 3.789062 C 70.933594 3.789062 60.140625 6.71875 50.042969 12.5 Z M 50.042969 12.5 " fill-opacity="1" fill-rule="evenodd"/></g><g clip-path="url(#b379099a07)"><path fill="#7543ff" d="M 18.359375 284.707031 L 18.359375 311.457031 C 18.359375 322.867188 21.289062 333.660156 26.761719 343.140625 C 32.234375 352.625 40.097656 360.566406 50.042969 366.269531 C 50.429688 366.5 50.8125 366.730469 51.199219 366.886719 C 60.914062 372.28125 71.320312 374.980469 81.726562 374.980469 C 92.519531 374.980469 103.3125 372.050781 113.335938 366.269531 L 231.898438 297.890625 C 241.921875 292.109375 249.863281 284.167969 255.257812 274.839844 L 255.257812 274.761719 C 260.730469 265.28125 263.660156 254.488281 263.660156 243.078125 C 263.660156 231.667969 260.730469 220.875 255.257812 211.394531 C 249.785156 201.988281 241.921875 194.050781 231.898438 188.265625 L 127.441406 127.980469 C 124.589844 126.363281 121.582031 125.59375 118.5 125.59375 C 112.253906 125.59375 106.242188 128.832031 102.925781 134.613281 C 97.992188 143.246094 100.921875 154.191406 109.558594 159.125 L 214.015625 219.410156 C 218.410156 221.957031 221.878906 225.347656 224.113281 229.277344 C 226.347656 233.210938 227.582031 237.914062 227.582031 243.078125 C 227.582031 248.242188 226.347656 252.945312 224.113281 256.800781 C 221.800781 260.808594 218.332031 264.277344 214.015625 266.746094 L 95.449219 335.125 C 91.054688 337.667969 86.429688 338.902344 81.726562 338.902344 C 77.332031 338.902344 72.9375 337.824219 68.777344 335.585938 C 68.546875 335.433594 68.3125 335.277344 68.082031 335.125 C 63.609375 332.503906 60.140625 329.113281 57.90625 325.257812 C 55.671875 321.324219 54.4375 316.621094 54.4375 311.457031 L 54.4375 284.707031 C 54.4375 274.761719 46.34375 266.667969 36.398438 266.667969 C 26.453125 266.667969 18.359375 274.6875 18.359375 284.707031 Z M 18.359375 284.707031 " fill-opacity="1" fill-rule="evenodd"/></g><g transform="matrix(1, 0, 0, 1, 364, 349)"><g clip-path="url(#f5130dd3a2)"><g fill="#ffffff" fill-opacity="1"><g transform="translate(0.382793, 21.624985)"><g><path d="M 7.75 0 L 7.390625 -1.484375 L 7.3125 -1.484375 C 7.09375 -1.191406 6.875 -0.9375 6.65625 -0.71875 C 6.445312 -0.507812 6.210938 -0.335938 5.953125 -0.203125 C 5.703125 -0.0664062 5.421875 0.03125 5.109375 0.09375 C 4.796875 0.164062 4.4375 0.203125 4.03125 0.203125 C 3.570312 0.203125 3.15625 0.132812 2.78125 0 C 2.40625 -0.125 2.078125 -0.316406 1.796875 -0.578125 C 1.523438 -0.847656 1.3125 -1.179688 1.15625 -1.578125 C 1 -1.972656 0.921875 -2.445312 0.921875 -3 C 0.921875 -4.0625 1.296875 -4.878906 2.046875 -5.453125 C 2.796875 -6.023438 3.941406 -6.335938 5.484375 -6.390625 L 7.28125 -6.46875 L 7.28125 -7.140625 C 7.28125 -7.578125 7.234375 -7.941406 7.140625 -8.234375 C 7.046875 -8.523438 6.90625 -8.757812 6.71875 -8.9375 C 6.539062 -9.113281 6.320312 -9.238281 6.0625 -9.3125 C 5.800781 -9.394531 5.5 -9.4375 5.15625 -9.4375 C 4.613281 -9.4375 4.109375 -9.359375 3.640625 -9.203125 C 3.179688 -9.046875 2.738281 -8.859375 2.3125 -8.640625 L 1.6875 -9.984375 C 2.164062 -10.242188 2.703125 -10.460938 3.296875 -10.640625 C 3.890625 -10.828125 4.507812 -10.921875 5.15625 -10.921875 C 5.820312 -10.921875 6.394531 -10.851562 6.875 -10.71875 C 7.363281 -10.582031 7.765625 -10.367188 8.078125 -10.078125 C 8.398438 -9.796875 8.640625 -9.425781 8.796875 -8.96875 C 8.953125 -8.519531 9.03125 -7.976562 9.03125 -7.34375 L 9.03125 0 Z M 4.484375 -1.234375 C 4.878906 -1.234375 5.242188 -1.296875 5.578125 -1.421875 C 5.921875 -1.546875 6.21875 -1.734375 6.46875 -1.984375 C 6.71875 -2.234375 6.910156 -2.546875 7.046875 -2.921875 C 7.179688 -3.304688 7.25 -3.757812 7.25 -4.28125 L 7.25 -5.25 L 5.859375 -5.171875 C 5.273438 -5.148438 4.785156 -5.085938 4.390625 -4.984375 C 3.992188 -4.878906 3.675781 -4.734375 3.4375 -4.546875 C 3.195312 -4.359375 3.023438 -4.132812 2.921875 -3.875 C 2.816406 -3.613281 2.765625 -3.316406 2.765625 -2.984375 C 2.765625 -2.378906 2.921875 -1.9375 3.234375 -1.65625 C 3.554688 -1.375 3.972656 -1.234375 4.484375 -1.234375 Z M 4.484375 -1.234375 "/></g></g></g></g></g></svg>