<svg width="400" height="400" viewBox="0 0 400 400" fill="none" xmlns="http://www.w3.org/2000/svg">
  <defs>
    <linearGradient id="mainGradient" x1="0%" y1="0%" x2="100%" y2="100%">
      <stop offset="0%" style="stop-color:#A78BFA;stop-opacity:1" />
      <stop offset="50%" style="stop-color:#7C3AED;stop-opacity:1" />
      <stop offset="100%" style="stop-color:#5B21B6;stop-opacity:1" />
    </linearGradient>
  </defs>

  <!-- 主体 Play/Forward 符号 -->
  <!-- 上部横条 -->
  <path d="M 70 80 Q 70 70 80 70 L 280 70 Q 320 70 340 100 L 340 130 Q 340 140 330 140 L 190 140 Q 180 140 180 150 L 180 155"
        fill="url(#mainGradient)"
        stroke="none"/>

  <!-- 中间 S 形连接 -->
  <path d="M 180 155 Q 180 165 190 165 L 250 165 Q 260 165 265 172 L 295 210 Q 300 218 295 226 L 265 264 Q 260 271 250 271 L 190 271 Q 180 271 180 281 L 180 286"
        fill="url(#mainGradient)"
        stroke="none"/>

  <!-- 下部横条 -->
  <path d="M 180 286 Q 180 296 190 296 L 330 296 Q 340 296 340 306 L 340 336 Q 320 366 280 366 L 80 366 Q 70 366 70 356 L 70 306 Q 70 296 80 296 L 140 296"
        fill="url(#mainGradient)"
        stroke="none"/>

  <!-- 左下角圆点 -->
  <circle cx="85" cy="400" r="22" fill="url(#mainGradient)" opacity="0.8"/>

  <!-- 右上角圆点 -->
  <circle cx="355" cy="50" r="18" fill="url(#mainGradient)" opacity="0.6"/>
</svg>
