<svg width="400" height="400" viewBox="0 0 400 400" fill="none" xmlns="http://www.w3.org/2000/svg">
  <defs>
    <linearGradient id="gradient1" x1="0%" y1="0%" x2="100%" y2="100%">
      <stop offset="0%" style="stop-color:#8B5CF6;stop-opacity:1" />
      <stop offset="50%" style="stop-color:#6366F1;stop-opacity:1" />
      <stop offset="100%" style="stop-color:#3B82F6;stop-opacity:1" />
    </linearGradient>
  </defs>

  <!-- 外层的 ">" 形状 -->
  <path d="M 80 80 L 80 140 C 80 150 85 155 95 155 L 180 155 L 140 200 L 180 245 L 95 245 C 85 245 80 250 80 260 L 80 320 C 80 330 85 335 95 335 L 260 335 C 270 335 280 330 290 320 L 340 260 C 345 253 345 247 340 240 L 220 100 C 215 93 205 85 195 85 L 95 85 C 85 85 80 90 80 100 Z"
        fill="url(#gradient1)"
        stroke="none"/>

  <!-- 内层的 ">" 强调线 -->
  <path d="M 160 165 L 240 165 C 248 165 255 170 260 177 L 315 245 C 318 250 318 255 315 260 L 280 305 C 275 312 268 318 260 318 L 160 318 C 152 318 150 312 155 305 L 190 260 C 193 255 193 250 190 245 L 155 200 C 150 193 152 187 160 187 L 220 187 L 190 220 L 220 253 L 180 253 L 205 220 L 180 187 Z"
        fill="url(#gradient1)"
        opacity="0.6"
        stroke="none"/>

  <!-- 左下角点缀 -->
  <circle cx="100" cy="360" r="25" fill="url(#gradient1)"/>
</svg>
